<?xml version="1.0" encoding="UTF-8"?>
<svg width="18px" height="22px" viewBox="0 0 18 22" version="1.1" xmlns="http://www.w3.org/2000/svg" xmlns:xlink="http://www.w3.org/1999/xlink">
    <title>Vector</title>
    <g id="Page-1" stroke="none" stroke-width="1" fill="none" fill-rule="evenodd">
        <g id="Tempo_App" transform="translate(-554, -51)" fill="#FFFFFF">
            <g id="main" transform="translate(147, 42)">
                <g id="Frame-427321027" transform="translate(404, 0)">
                    <g id="Vector" transform="translate(0, 8)">
                        <path d="M11.9999733,1.75 C11.9999731,1.75 11.9966397,1.75 11.9899731,1.75 C8.4599731,1.75 4.41997324,3.81999969 3.36997329,8.43999958 C2.19997333,13.5999994 5.35997367,17.9699993 8.21997356,20.7199993 C9.27997351,21.7399993 10.6399733,22.25 11.9999733,22.25 C13.3599733,22.25 14.7199738,21.7399993 15.7699738,20.7199993 C18.6299736,17.9699993 21.7899741,13.6099997 20.6199741,8.44999981 C19.5699742,3.82999992 15.5399733,1.75 11.9999733,1.75 Z M8.84997368,10.3100004 C8.84997368,8.57000041 10.2599733,7.15999985 11.9999733,7.15999985 C13.7399733,7.15999985 15.1499729,8.57000041 15.1499729,10.3100004 C15.1499729,12.0500004 13.7399733,13.46 11.9999733,13.46 C10.2599733,13.46 8.84997368,12.0500004 8.84997368,10.3100004 Z"></path>
                    </g>
                </g>
            </g>
        </g>
    </g>
</svg>