<?xml version="1.0" encoding="UTF-8"?>
<svg width="40px" height="41px" viewBox="0 0 40 41" version="1.1" xmlns="http://www.w3.org/2000/svg" xmlns:xlink="http://www.w3.org/1999/xlink">
    <title>vuesax/bulk/sun-fog</title>
    <g id="Page-1" stroke="none" stroke-width="1" fill="none" fill-rule="evenodd">
        <g id="Tempo_App" transform="translate(-971, -675)">
            <g id="main" transform="translate(147, 42)">
                <g id="tempo" transform="translate(0, 118)">
                    <g id="Frame-427321037" transform="translate(808, 427.8082)">
                        <g id="Frame-427321036" transform="translate(0, 76)">
                            <g id="vuesax/bulk/sun-fog" transform="translate(16, 12)">
                                <path d="M0,0 L40,0 L40,40 L0,40 Z" id="vuesax/bulk/sun-fog-(Background)"></path>
                                <g id="sun-fog">
                                    <path d="M40,0 L40,40 L0,40 L0,0 L40,0 Z" id="Vector" opacity="0"></path>
                                    <g id="Group" transform="translate(8.3647, 8.75)" fill="#FFFFFF" fill-rule="nonzero">
                                        <path d="M23.2685452,10.7999932 C22.8185451,4.76665987 17.7852453,0 11.6352453,0 C5.48524531,0 0.451944477,4.74999282 0.00194446511,10.7999932 C-0.031388867,11.2666599 0.368611162,11.666667 0.835277824,11.666667 L22.4352118,11.666667 C22.9018785,11.666667 23.3018785,11.2666599 23.2685452,10.7999932 Z" id="Vector"></path>
                                    </g>
                                    <path d="M36.5333252,21.6666565 C35.6166585,21.6666565 34.8666585,20.9166565 34.8666585,19.9999898 C34.8666585,19.0833231 35.6166585,18.3333232 36.5333252,18.3333232 C37.4499919,18.3333232 38.2667236,19.0833231 38.2667236,19.9999898 C38.2667236,20.9166565 37.5833537,21.6666565 36.666687,21.6666565 L36.5333252,21.6666565 Z M3.33335368,21.6666565 C2.41668699,21.6666565 1.66668701,20.9166565 1.66668701,19.9999898 C1.66668701,19.0833231 2.41668699,18.3333232 3.33335368,18.3333232 C4.25002036,18.3333232 5.06665039,19.0833231 5.06665039,19.9999898 C5.06665039,20.9166565 4.38338218,21.6666565 3.46671549,21.6666565 L3.33335368,21.6666565 Z M30.5,9.49998474 C29.85,8.84998477 29.85,7.79997861 30.5,7.14997864 L30.7166748,6.93332926 C31.3666748,6.28332929 32.4167318,6.28332929 33.0667318,6.93332926 C33.7167317,7.58332924 33.7167317,8.63333539 33.0667318,9.28333537 L32.850057,9.49998474 C32.5333903,9.8166514 32.1167033,9.98333232 31.68337,9.98333232 C31.2500366,9.98333232 30.8333333,9.8166514 30.5,9.49998474 Z M7.13340251,9.49998474 L6.9167277,9.28333537 C6.26672773,8.63333539 6.26672773,7.58332924 6.9167277,6.93332926 C7.56672768,6.28332929 8.61668297,6.28332929 9.26668294,6.93332926 L9.48335775,7.14997864 C10.1333577,7.79997861 10.1333577,8.84998477 9.48335775,9.49998474 C9.16668701,9.8166514 8.7333374,9.98333232 8.31667074,9.98333232 C7.88333742,9.98333232 7.46673584,9.8166514 7.13340251,9.49998474 Z M18.3333537,3.46665955 L18.3333537,3.33332316 C18.3333537,2.41665647 19.0833537,1.66665649 20.0000203,1.66665649 C20.916687,1.66665649 21.666687,2.41665647 21.666687,3.33332316 C21.666687,4.24998985 20.916687,5.0666453 20.0000203,5.0666453 C19.0833537,5.0666453 18.3333537,4.38332623 18.3333537,3.46665955 Z" id="Vector" fill="#FFFFFF"></path>
                                    <path d="M6.66668698,26.25 C5.98335367,26.25 5.41668701,25.6833333 5.41668701,25 C5.41668701,24.3166667 5.98335367,23.75 6.66668698,23.75 L33.3333531,23.75 C34.0166864,23.75 34.583353,24.3166667 34.583353,25 C34.583353,25.6833333 34.0166864,26.25 33.3333531,26.25 L6.66668698,26.25 Z" id="Vector" fill="#FFFFFF" fill-rule="nonzero" opacity="0.400000006"></path>
                                    <path d="M10,31.25 C9.31666667,31.25 8.75,30.6833333 8.75,30 C8.75,29.3166667 9.31666667,28.75 10,28.75 L30,28.75 C30.6833333,28.75 31.25,29.3166667 31.25,30 C31.25,30.6833333 30.6833333,31.25 30,31.25 L10,31.25 Z" id="Vector" fill="#FFFFFF" fill-rule="nonzero" opacity="0.400000006"></path>
                                    <path d="M15,36.25 C14.3166667,36.25 13.75,35.6833333 13.75,35 C13.75,34.3166667 14.3166667,33.75 15,33.75 L25,33.75 C25.6833333,33.75 26.25,34.3166667 26.25,35 C26.25,35.6833333 25.6833333,36.25 25,36.25 L15,36.25 Z" id="Vector" fill="#FFFFFF" fill-rule="nonzero" opacity="0.400000006"></path>
                                </g>
                            </g>
                        </g>
                    </g>
                </g>
            </g>
        </g>
    </g>
</svg>