<?xml version="1.0" encoding="UTF-8"?>
<svg width="40px" height="41px" viewBox="0 0 40 41" version="1.1" xmlns="http://www.w3.org/2000/svg" xmlns:xlink="http://www.w3.org/1999/xlink">
    <title>vuesax/bulk/sun</title>
    <g id="Page-1" stroke="none" stroke-width="1" fill="none" fill-rule="evenodd">
        <g id="Tempo_App" transform="translate(-971, -599)">
            <g id="main" transform="translate(147, 42)">
                <g id="tempo" transform="translate(0, 118)">
                    <g id="Frame-427321037" transform="translate(808, 427.8082)">
                        <g id="vuesax/bulk/sun" transform="translate(16, 12)">
                            <path d="M0,0 L40,0 L40,40 L0,40 Z" id="vuesax/bulk/sun-(Background)"></path>
                            <g id="sun">
                                <path d="M19.99998,31.6666775 C13.5566577,31.6666775 8.33331299,26.4433328 8.33331299,20.0000105 C8.33331299,13.5566882 13.5566577,8.33334351 19.99998,8.33334351 C26.4433023,8.33334351 31.666647,13.5566882 31.666647,20.0000105 C31.666647,26.4433328 26.4433023,31.6666775 19.99998,31.6666775 Z" id="Vector" fill="#FFFFFF" opacity="0.400000006"></path>
                                <path d="M18.3333537,36.6666565 L18.3333537,36.5333233 C18.3333537,35.6166566 19.0833537,34.8666566 20.0000203,34.8666566 C20.916687,34.8666566 21.666687,35.6166566 21.666687,36.5333233 C21.666687,37.44999 20.916687,38.266655 20.0000203,38.266655 C19.0833537,38.266655 18.3333537,37.5833232 18.3333537,36.6666565 Z M30.7166875,33.0833238 L30.5000191,32.8666553 C29.8500191,32.2166554 29.8500191,31.1666565 30.5000191,30.5166556 C31.150019,29.8666556 32.2000188,29.8666556 32.8500188,30.5166556 L33.0666873,30.7333241 C33.7166872,31.383324 33.7166872,32.4333238 33.0666873,33.0833238 C32.7500206,33.3999905 32.3333526,33.5666555 31.9000193,33.5666555 C31.466686,33.5666555 31.0500209,33.3999905 30.7166875,33.0833238 Z M6.91668717,33.0833238 C6.26668719,32.4333238 6.26668719,31.383324 6.91668717,30.7333241 L7.13335403,30.5166556 C7.783354,29.8666556 8.8333538,29.8666556 9.48335377,30.5166556 C10.1333537,31.1666565 10.1333537,32.2166554 9.48335377,32.8666553 L9.26668692,33.0833238 C8.95002025,33.3999905 8.51668723,33.5666555 8.10002057,33.5666555 C7.66668701,33.5666555 7.25002051,33.3999905 6.91668717,33.0833238 Z M36.5333538,21.6666565 C35.6166871,21.6666565 34.8666871,20.9166565 34.8666871,19.9999898 C34.8666871,19.0833231 35.6166871,18.3333232 36.5333538,18.3333232 C37.4500205,18.3333232 38.2666855,19.0833231 38.2666855,19.9999898 C38.2666855,20.9166565 37.5833537,21.6666565 36.666687,21.6666565 L36.5333538,21.6666565 Z M3.33335368,21.6666565 C2.41668699,21.6666565 1.66668701,20.9166565 1.66668701,19.9999898 C1.66668701,19.0833231 2.41668699,18.3333232 3.33335368,18.3333232 C4.25002036,18.3333232 5.06668695,19.0833231 5.06668695,19.9999898 C5.06668695,20.9166565 4.38335357,21.6666565 3.46668688,21.6666565 L3.33335368,21.6666565 Z M30.5000191,9.49998951 C29.8500191,8.84998953 29.8500191,7.79998974 30.5000191,7.14998976 L30.7166875,6.93332291 C31.3666875,6.28332293 32.4166873,6.28332293 33.0666873,6.93332291 C33.7166872,7.58332288 33.7166872,8.63332347 33.0666873,9.28332345 L32.8500188,9.49998951 C32.5333522,9.81665617 32.1166874,9.98332278 31.6833541,9.98332278 C31.2500207,9.98332278 30.8333524,9.81665617 30.5000191,9.49998951 Z M7.13335403,9.49998951 L6.91668717,9.2666564 C6.26668719,8.61665642 6.26668719,7.56665663 6.91668717,6.91665665 C7.56668715,6.26665668 8.61668694,6.26665668 9.26668692,6.91665665 L9.48335377,7.13332351 C10.1333537,7.78332349 10.1333537,8.83332328 9.48335377,9.48332326 C9.16668701,9.81665659 8.7333533,9.98332278 8.31668663,9.98332278 C7.88335331,9.98332278 7.46668737,9.81665617 7.13335403,9.49998951 Z M18.3333537,3.46665637 L18.3333537,3.33332316 C18.3333537,2.41665647 19.0833537,1.66665649 20.0000203,1.66665649 C20.916687,1.66665649 21.666687,2.41665647 21.666687,3.33332316 C21.666687,4.24998985 20.916687,5.06665643 20.0000203,5.06665643 C19.0833537,5.06665643 18.3333537,4.38332305 18.3333537,3.46665637 Z" id="Vector" fill="#FFFFFF"></path>
                                <path d="M40,0 L40,40 L0,40 L0,0 L40,0 Z" id="Vector" opacity="0"></path>
                            </g>
                        </g>
                    </g>
                </g>
            </g>
        </g>
    </g>
</svg>